<svg xmlns="http://www.w3.org/2000/svg" xmlns:xlink="http://www.w3.org/1999/xlink" viewBox="0 0 538.03 373.99"><defs><style>.cls-1{fill:#ffeedf;stroke:url(#radial-gradient);}.cls-1,.cls-11,.cls-15,.cls-18,.cls-3,.cls-6{stroke-miterlimit:10;}.cls-2{fill:#8c6239;}.cls-3{fill:url(#radial-gradient-2);stroke:url(#radial-gradient-3);}.cls-11,.cls-4{fill:#fff;}.cls-5{fill:url(#radial-gradient-4);}.cls-6{fill:#a67c52;}.cls-18,.cls-6{stroke:#000;}.cls-7{fill:url(#radial-gradient-5);}.cls-8{fill:url(#radial-gradient-6);}.cls-9{fill:url(#radial-gradient-7);}.cls-10{fill:url(#radial-gradient-8);}.cls-11{stroke:url(#radial-gradient-9);}.cls-12{fill:#ffd17d;}.cls-13{fill:#2f2e41;}.cls-14{fill:url(#radial-gradient-10);}.cls-15{fill:url(#radial-gradient-11);stroke:url(#radial-gradient-12);}.cls-16{fill:#00519e;}.cls-17,.cls-18{fill:none;}.cls-18{stroke-width:0.75px;}</style><radialGradient id="radial-gradient" cx="231.24" cy="172.34" r="237.63" gradientTransform="matrix(0.92, -0.02, -0.02, 0.96, 41.91, 25.69)" gradientUnits="userSpaceOnUse"><stop offset="0" stop-color="#bd5c00"/><stop offset="1" stop-color="#754600"/></radialGradient><radialGradient id="radial-gradient-2" cx="251.26" cy="-24.43" r="120.97" gradientTransform="translate(0 271.18)" xlink:href="#radial-gradient"/><radialGradient id="radial-gradient-3" cx="251.26" cy="782.04" r="121.41" gradientTransform="matrix(1, 0, 0, -1, 0, 1039.57)" xlink:href="#radial-gradient"/><radialGradient id="radial-gradient-4" cx="230.09" cy="-110.35" r="80.5" gradientTransform="translate(0 271.18)" gradientUnits="userSpaceOnUse"><stop offset="0" stop-color="#9e4d00"/><stop offset="1" stop-color="#462a00"/></radialGradient><radialGradient id="radial-gradient-5" cx="221.78" cy="821.03" r="7.85" gradientTransform="matrix(1, 0, 0, -1, 0, 1039.57)" xlink:href="#radial-gradient-4"/><radialGradient id="radial-gradient-6" cx="251.53" cy="821.03" r="7.85" gradientTransform="matrix(1, 0, 0, -1, 0, 1039.57)" xlink:href="#radial-gradient-4"/><radialGradient id="radial-gradient-7" cx="222.23" cy="843.79" r="7.86" gradientTransform="matrix(1, 0, 0, -1, 0, 1039.57)" xlink:href="#radial-gradient"/><radialGradient id="radial-gradient-8" cx="251.98" cy="843.79" r="7.86" gradientTransform="matrix(1, 0, 0, -1, 0, 1039.57)" xlink:href="#radial-gradient"/><radialGradient id="radial-gradient-9" cx="234.44" cy="846.06" r="77.15" gradientTransform="matrix(1, 0, 0, -1, 0, 1039.57)" xlink:href="#radial-gradient"/><radialGradient id="radial-gradient-10" cx="472.78" cy="214.28" r="201.4" gradientUnits="userSpaceOnUse"><stop offset="0" stop-color="#b45b00"/><stop offset="1" stop-color="#462a00"/></radialGradient><radialGradient id="radial-gradient-11" cx="495.96" cy="248.52" r="1.84" gradientTransform="matrix(1, 0, 0, 1, 0, 0)" xlink:href="#radial-gradient"/><radialGradient id="radial-gradient-12" cx="496.03" cy="246.87" r="3.91" gradientTransform="matrix(1, 0, 0, 1, 0, 0)" xlink:href="#radial-gradient"/></defs><title>nAsset 3</title><g id="Layer_2" data-name="Layer 2"><g id="Layer_1-2" data-name="Layer 1"><path class="cls-1" d="M165.33,13.31C155-2.5,130.93-.82,112.47,3.36,56.12,16.14,3.37,58.61,14.57,123.46,27.79,200-36.19,236,34.05,288.69s136.26-29.07,208.9,1.2c82.94,34.57,94.3,132.78,186.38,53.36,64.78-55.87,117.32-240.3,22.21-227.82-62.19,8.17-93.81,4.87-147.51-38C232.8,20.47,224.39,103.29,165.33,13.31Z"/><g id="Layer_1-2-2" data-name="Layer 1-2"><g id="Layer_1-2-2-2" data-name="Layer 1-2-2"><path class="cls-2" d="M213.92,278.17v15.71h15.71V278.17Zm.45,22.76V316.7H230.1V300.93Zm29.3-22.76v15.71h15.71V278.17Zm.46,22.76V316.7h15.72V300.93Zm108.51-90c-2.1,0-3.79,3.33-3.79,7.43s1.69,7.44,3.79,7.44,3.77-3.33,3.77-7.44-1.69-7.45-3.77-7.45Zm4.67-13.1c-1.73,0-3.13,2-3.13,4.45a5.64,5.64,0,0,0,1,3.25,2.66,2.66,0,0,0,2.16,1.22,2.85,2.85,0,0,0,2.42-1.65,5.82,5.82,0,0,0,.71-2.82c0-2.48-1.44-4.47-3.16-4.47Z"/><path class="cls-3" d="M366.64,194.13a223.26,223.26,0,0,0-1.59-25.33,3.68,3.68,0,0,1,0,.47c0,23-59.22,41.57-132.27,41.57s-132.26-18.62-132.26-41.57a1.82,1.82,0,0,1,0-.33A223.58,223.58,0,0,0,99,195.7c0,51.21,17.09,97.21,44.3,129l93.86-71.78,58.89,45v-45h13.27v55.19l16.43,12.55a175.77,175.77,0,0,0,24.58-41.73A43.21,43.21,0,0,0,373,195.54c-.84-.23-1.69-.43-2.54-.61-1.25-.3-2.51-.54-3.78-.73Zm-9.33,3.68c1.72,0,3.13,2,3.13,4.45a5.82,5.82,0,0,1-.71,2.82,2.87,2.87,0,0,1-2.42,1.62,2.66,2.66,0,0,1-2.16-1.22,5.64,5.64,0,0,1-1-3.25c.07-2.46,1.43-4.45,3.16-4.45Zm-4.67,28c-2.1,0-3.79-3.33-3.79-7.44s1.69-7.43,3.79-7.43,3.77,3.33,3.77,7.43-1.69,7.41-3.77,7.41Zm7.81,42.89a30.27,30.27,0,0,1-6-.57,214.57,214.57,0,0,0,12-62.43,31.83,31.83,0,0,1-6,63Z"/><ellipse class="cls-4" cx="232.43" cy="159.27" rx="126.76" ry="41.58"/><path class="cls-2" d="M232.45,200.85c-23.46,0-47-1.89-70-6.76-11.46-2.51-22.85-5.65-33.59-10.51a65.69,65.69,0,0,1-15.1-9.14,30.43,30.43,0,0,1-6-6.61,15.38,15.38,0,0,1-.09-17.13,29.93,29.93,0,0,1,5.9-6.7,65.57,65.57,0,0,1,15.06-9.34c10.77-5,22.11-8.32,33.59-10.89,23-5,46.61-7,70.13-7.07,23.52.1,47,2.08,70.12,7.07a163.66,163.66,0,0,1,33.59,10.86A65.5,65.5,0,0,1,351.22,144a30.42,30.42,0,0,1,5.91,6.74,15.41,15.41,0,0,1-.08,17.16,30,30,0,0,1-6,6.61A65.07,65.07,0,0,1,336,183.61c-10.74,4.86-22.13,8-33.59,10.51C279.45,199,255.89,200.84,232.45,200.85Zm0,0c23.45-.11,47-2.08,69.91-7A163.84,163.84,0,0,0,335.74,183a64.45,64.45,0,0,0,14.83-9.19,29.84,29.84,0,0,0,5.71-6.47,14.35,14.35,0,0,0-.08-16.1,29.1,29.1,0,0,0-5.75-6.38,64,64,0,0,0-14.86-9c-10.63-4.82-22-7.94-33.38-10.44-22.91-4.86-46.39-6.73-69.76-6.73s-46.89,1.87-69.78,6.73c-11.45,2.49-22.75,5.63-33.38,10.44a64.26,64.26,0,0,0-14.87,9,29.15,29.15,0,0,0-5.75,6.39,14.4,14.4,0,0,0-.08,16.1,29.4,29.4,0,0,0,5.71,6.48A64.07,64.07,0,0,0,129.13,183a163.9,163.9,0,0,0,33.39,10.78C185.45,198.7,209,200.7,232.45,200.85Z"/><ellipse class="cls-5" cx="230.09" cy="160.83" rx="108.17" ry="35.48"/><path class="cls-4" d="M273.35,136.32a31.83,31.83,0,0,1,8.6,6.56,19.36,19.36,0,0,1,4.89,9.73,18.13,18.13,0,0,1-1.62,10.87,29.26,29.26,0,0,1-6.71,8.79,48.9,48.9,0,0,1-9,6.38c-1.61.89-3.23,1.73-4.89,2.5a55,55,0,0,1-5.13,2,70.27,70.27,0,0,1-21.67,3.55A86.61,86.61,0,0,1,216,184.22a73,73,0,0,1-20.51-8.12l-2.38-1.4L190.86,173a22.07,22.07,0,0,1-4.19-4,16,16,0,0,1-2.85-5.38,12.64,12.64,0,0,1-.16-6.26,18.33,18.33,0,0,1,6.68-9.75,38.86,38.86,0,0,1,9.84-5.61A61.79,61.79,0,0,1,222,137.7a72,72,0,0,1,11.08.7A53.11,53.11,0,0,1,243.88,141a32.74,32.74,0,0,1,10,5.52,12.79,12.79,0,0,1,3.69,5,8.62,8.62,0,0,1-.07,6.49,13,13,0,0,1-3.74,4.87,24,24,0,0,1-4.94,3,36.15,36.15,0,0,1-10.83,3,44.1,44.1,0,0,1-11.13,0,33.09,33.09,0,0,1-10.78-3.22,15.21,15.21,0,0,1-4.63-3.44,6.76,6.76,0,0,1-1.48-2.83,5.37,5.37,0,0,1,.26-3.29,9.23,9.23,0,0,1,4.1-4.34,20.4,20.4,0,0,1,5.2-2.1,27.35,27.35,0,0,1,11.07-.38,21.57,21.57,0,0,1,5.34,1.57,12.65,12.65,0,0,1,2.43,1.44,5.33,5.33,0,0,1,1.89,2.26,3.34,3.34,0,0,1-.2,3,6,6,0,0,1-2.05,2,13.52,13.52,0,0,1-5.22,1.79,18.11,18.11,0,0,1-5.45-.14,10.78,10.78,0,0,1-5-2.09,10.51,10.51,0,0,0,5,1.8,17.26,17.26,0,0,0,5.32-.14,13,13,0,0,0,4.88-1.88,5.17,5.17,0,0,0,1.69-1.79,2.42,2.42,0,0,0,.07-2.19,4.52,4.52,0,0,0-1.63-1.76,11.2,11.2,0,0,0-2.22-1.23,19.94,19.94,0,0,0-5.1-1.26,25.94,25.94,0,0,0-10.37.76,19.51,19.51,0,0,0-4.7,2,7.34,7.34,0,0,0-3.15,3.39,3.7,3.7,0,0,0,1,3.89,13.34,13.34,0,0,0,4,2.81,31.23,31.23,0,0,0,10,2.64,42.33,42.33,0,0,0,10.43-.21,33.71,33.71,0,0,0,9.86-3,22,22,0,0,0,4.21-2.67,10,10,0,0,0,2.76-3.61,5.23,5.23,0,0,0,0-4,9.66,9.66,0,0,0-2.77-3.56,29.22,29.22,0,0,0-8.94-4.78,61,61,0,0,0-20.64-3,57.84,57.84,0,0,0-20.43,4,34.74,34.74,0,0,0-8.91,5c-2.59,2.08-4.75,4.72-5.43,7.67a9,9,0,0,0,.09,4.43,12.4,12.4,0,0,0,2.19,4.12,18.83,18.83,0,0,0,3.57,3.45l2.1,1.67c.71.48,1.46.93,2.2,1.4a69.92,69.92,0,0,0,19.45,8,90.18,90.18,0,0,0,21,2.79,67.28,67.28,0,0,0,20.91-2.9c1.69-.53,3.3-1.23,5-1.84a38.38,38.38,0,0,0,4.79-2.31,48.44,48.44,0,0,0,8.77-5.9,27.45,27.45,0,0,0,6.66-8,16.89,16.89,0,0,0,1.94-10.1,18.62,18.62,0,0,0-4.33-9.5A31.77,31.77,0,0,0,273.35,136.32Z"/><rect class="cls-6" x="213.92" y="278.17" width="15.71" height="15.71"/><rect class="cls-6" x="214.37" y="300.93" width="15.72" height="15.72"/><rect class="cls-6" x="243.67" y="278.17" width="15.71" height="15.71"/><rect class="cls-6" x="244.12" y="300.93" width="15.72" height="15.72"/><rect class="cls-7" x="213.92" y="278.17" width="15.71" height="15.71"/><rect class="cls-8" x="243.67" y="278.17" width="15.71" height="15.71"/><rect class="cls-9" x="214.37" y="300.93" width="15.72" height="15.72"/><rect class="cls-10" x="244.12" y="300.93" width="15.72" height="15.72"/><path class="cls-11" d="M309.27,308.08V252.89H296v45l-58.89-45L143.22,324.7c23.72,27.69,55.11,44.55,89.55,44.55,36.08,0,68.82-18.5,92.9-48.59Zm-95.35-29.91h15.71v15.71H213.92ZM230.1,316.7H214.37V300.93H230.1Zm13.57-38.49h15.71v15.71H243.67Zm16.18,38.49H244.13V300.93h15.72Z"/><path class="cls-4" d="M111.15,185.62s4,75.79,16.67,92.55c0,0-15.2-82.9-12.65-89.87"/><path class="cls-4" d="M121.92,186.53s3.39,64.28,14.14,78.5c0,0-12.89-70.31-10.73-76.23"/><path class="cls-4" d="M356.45,218.34c0,4.11-1.69,7.44-3.77,7.44s-3.79-3.33-3.79-7.44,1.69-7.43,3.79-7.43S356.45,214.24,356.45,218.34Z"/><path class="cls-4" d="M360.45,202.26a5.82,5.82,0,0,1-.71,2.82,2.85,2.85,0,0,1-2.43,1.62,2.66,2.66,0,0,1-2.16-1.22,5.64,5.64,0,0,1-1-3.25c0-2.46,1.4-4.45,3.13-4.45S360.45,199.8,360.45,202.26Z"/></g></g><polygon class="cls-12" points="487.42 352.92 487.42 362.57 480.65 362.57 480.41 360.64 479.44 352.78 487.42 352.92"/><path d="M467.58,368.86h21.29v-8.23H475.81a8.24,8.24,0,0,0-8.23,8.23Z"/><polygon class="cls-12" points="432.9 362.57 426.13 362.57 422.91 336.44 432.9 336.44 432.9 362.57"/><path d="M413.06,368.86h21.29v-8.23H421.29a8.24,8.24,0,0,0-8.23,8.23Z"/><path d="M495.85,296.13l-4.35,54.66a2.66,2.66,0,0,1-2.61,2.16h-.05l-1.42,0-8-.14-.82,0a2.67,2.67,0,0,1-2.61-2.9l-3.15-76a1,1,0,0,0-.23-.34.89.89,0,0,0-1.25,0l-31.3,29.17a.27.27,0,0,0-.06.12l-2.73,44.88a2.65,2.65,0,0,1-2.84,2.37L432.9,350l-8.39-.58-1.07-.07a2.68,2.68,0,0,1-2.48-2.63l-.54-41.33a25.73,25.73,0,0,1,5.05-15.58l21.1-28.35L454.08,237a5.11,5.11,0,0,0,4.41,3.18c3,.2,6.84.38,11,.38,7.74,0,14.23-.62,20.66-2.92,1.92-.69,2.6-1.49,3-2.45A61.21,61.21,0,0,1,495.7,246l-.19,3.1a2.61,2.61,0,0,0,.89,2c.13,1.17.25,2.41.36,3.71a5.58,5.58,0,0,0,.51,9.65A255.7,255.7,0,0,1,495.85,296.13Z"/><path class="cls-13" d="M496.4,251.09a2.61,2.61,0,0,1-.89-2l.19-3.1C496,247.51,496.19,249.22,496.4,251.09Z"/><path class="cls-13" d="M497.27,264.45a5.58,5.58,0,0,1-.51-9.65C497,257.68,497.18,260.89,497.27,264.45Z"/><path class="cls-13" d="M487,166a14.42,14.42,0,0,1-2.48,8.12v0a19,19,0,0,1-21.43,3,14.48,14.48,0,0,1-5.2-11.14,14,14,0,0,1,.15-2.06h25.19l1.89-5.1A14.35,14.35,0,0,1,487,166Z"/><path class="cls-12" d="M392.77,211.94a5.56,5.56,0,0,1,7.57,2.11,5.49,5.49,0,0,1,.4.89l12.68.71,1.45,7.81L397,222.21a5.59,5.59,0,0,1-4.21-10.27Z"/><path class="cls-12" d="M505.29,258.34a5.59,5.59,0,1,1-8.53-3.54,4.59,4.59,0,0,1,.61-.35,6,6,0,0,1,.92-.35l.29-2.32,7.61,0Z"/><path class="cls-12" d="M487,166a14.42,14.42,0,0,1-2.48,8.12v0A14.56,14.56,0,0,1,457.83,166a14,14,0,0,1,.15-2.06h25.19l1.89-5.1A14.35,14.35,0,0,1,487,166Z"/><path class="cls-14" d="M510.69,249.13A2.68,2.68,0,0,1,508,251.8h-1.83l-7.61,0h-.45a2.61,2.61,0,0,1-1.73-.69c-.21-1.87-.45-3.58-.7-5.13l1-16.3-2.84-5.17a77.07,77.07,0,0,1-.39,9.51,7.82,7.82,0,0,1-.34,1.13h0c-.36,1-1,1.76-3,2.45-6.43,2.3-12.92,2.92-20.66,2.92-4.19,0-8.06-.18-11-.38a5.11,5.11,0,0,1-4.41-3.18,5,5,0,0,1-.39-2.11l.9-31.31-19.2,15.29a15,15,0,0,1-7.06,3.09l-20.95,2.89a2.67,2.67,0,0,1-3-2.2.59.59,0,0,1,0-.14l-1.11-9.78v0a2.66,2.66,0,0,1,2.38-2.92l19.43-1,29.42-20.91a5.72,5.72,0,0,1,1.1-.62,6.16,6.16,0,0,1,1.46-1.48,9.16,9.16,0,0,1,6.78-1.66c4.87.69,13.46,1.9,16.33,2.24a13.5,13.5,0,0,1,7.13,3.11,6.17,6.17,0,0,1,2.77,2.39L508,220.53a15.05,15.05,0,0,1,2.26,7.37l.46,21.13S510.69,249.1,510.69,249.13Z"/><path class="cls-15" d="M496.4,251.09a2.61,2.61,0,0,1-.89-2l.19-3.1C496,247.51,496.19,249.22,496.4,251.09Z"/><path d="M538,165.15a27.76,27.76,0,0,1-9.42,19.41c-4.73,4.1-12.45,2.65-17.1-1.54s-7-10.32-8.95-16.25-4-12.12-8.18-16.73c-2.92-3.19-9.52-6.51-15.12-7.24a15.31,15.31,0,0,1,1.41.69,19,19,0,0,1,3.8,30.59,14.52,14.52,0,0,0,.59-15.28l-1.89,5.1H458a14,14,0,0,0-.15,2.06A14.48,14.48,0,0,0,463,177.1a5.23,5.23,0,0,1-.58-.29A19,19,0,0,1,465.87,142c-.19-.35-.37-.73-.55-1.13a20.69,20.69,0,0,1,36.58-11.33c3.57,4.34,5.22,9.92,6.43,15.41s2.08,11.12,4.42,16.22,6.48,9.75,11.94,11.09S536.77,170.62,538,165.15Z"/><path class="cls-16" d="M389.69,369.25H507a.6.6,0,0,0,0-1.19H389.69a.6.6,0,0,0,0,1.19Z"/><circle cx="466.26" cy="168.8" r="1.38"/><circle cx="477.65" cy="168.8" r="1.38"/><circle class="cls-4" cx="478.3" cy="168.38" r="0.19"/><circle cx="466.26" cy="168.8" r="1.38"/><circle class="cls-4" cx="466.92" cy="168.38" r="0.19"/><path class="cls-17" d="M468.93,173.9a14.92,14.92,0,0,0,7,0l-.65-.57"/><path class="cls-17" d="M511.45,192.05a12.58,12.58,0,0,0,6.71-1.06c.42-.19.9-.52.85-1a1.16,1.16,0,0,0-.36-.62l-1.86-2.07"/><path class="cls-18" d="M468.11,175.9a15.85,15.85,0,0,0,2.75.3,4.77,4.77,0,0,0,2.34-.42,2,2,0,0,0,1.15-1.95"/></g></g></svg>