<?xml version="1.0" encoding="utf-8"?>
<!-- Generator: Adobe Illustrator 23.0.5, SVG Export Plug-In . SVG Version: 6.00 Build 0)  -->
<svg version="1.1" id="Layer_1" xmlns="http://www.w3.org/2000/svg" xmlns:xlink="http://www.w3.org/1999/xlink" x="0px" y="0px"
	 viewBox="0 0 321.9 454.4" style="enable-background:new 0 0 321.9 454.4;" xml:space="preserve">
<style type="text/css">
	.st0{fill:#8C6239;}
	.st1{fill:url(#SVGID_1_);stroke:url(#SVGID_2_);stroke-miterlimit:10;}
	.st2{fill:#FFFFFF;}
	.st3{fill:url(#SVGID_3_);}
	.st4{fill:#A67C52;stroke:#000000;stroke-miterlimit:10;}
	.st5{fill:url(#SVGID_4_);}
	.st6{fill:url(#SVGID_5_);}
	.st7{fill:url(#SVGID_6_);}
	.st8{fill:url(#SVGID_7_);}
	.st9{fill:#FFFFFF;stroke:url(#SVGID_8_);stroke-miterlimit:10;}
</style>
<title>Asset 3</title>
<g>
	<g id="Layer_1-2">
		<path class="st0" d="M124.6,253.9v15.7h15.7v-15.7H124.6z M125,276.6v15.7h15.7v-15.7H125z M154.3,253.9v15.7H170v-15.7H154.3z
			 M154.8,276.6v15.7h15.7v-15.7H154.8z M263.3,186.6c-2.1,0-3.8,3.3-3.8,7.4s1.7,7.4,3.8,7.4s3.8-3.3,3.8-7.4
			S265.4,186.6,263.3,186.6L263.3,186.6z M268,173.5c-1.7,0-3.1,2-3.1,4.4c0,1.2,0.3,2.3,1,3.3c0.5,0.7,1.3,1.2,2.2,1.2
			c1-0.1,2-0.7,2.4-1.6c0.5-0.9,0.7-1.8,0.7-2.8C271.1,175.5,269.7,173.5,268,173.5L268,173.5z"/>
		
			<radialGradient id="SVGID_1_" cx="161.91" cy="233.56" r="120.9781" gradientTransform="matrix(1 0 0 -1 0 456)" gradientUnits="userSpaceOnUse">
			<stop  offset="0" style="stop-color:#BD5C00"/>
			<stop  offset="1" style="stop-color:#754600"/>
		</radialGradient>
		
			<radialGradient id="SVGID_2_" cx="161.91" cy="233.2477" r="121.4127" gradientTransform="matrix(1 0 0 -1 0 456)" gradientUnits="userSpaceOnUse">
			<stop  offset="0" style="stop-color:#BD5C00"/>
			<stop  offset="1" style="stop-color:#754600"/>
		</radialGradient>
		<path class="st1" d="M277.3,169.8c0-8.5-0.6-16.9-1.6-25.3c0,0.2,0,0.3,0,0.5c0,23-59.2,41.6-132.3,41.6S11.2,167.9,11.2,145
			c0-0.1,0-0.2,0-0.3c-1.1,8.9-1.6,17.8-1.6,26.8c0,51.2,17.1,97.2,44.3,128.9l93.9-71.8l58.9,45v-45h13.3v55.2l16.4,12.5
			c10.1-12.7,18.3-26.8,24.6-41.7c23.2,5.6,46.5-8.7,52.1-32c5.6-23.2-8.7-46.5-32-52.1C279.8,170.3,278.6,170,277.3,169.8
			L277.3,169.8z M268,173.5c1.7,0,3.1,2,3.1,4.4c0,1-0.2,2-0.7,2.8c-0.4,1-1.4,1.6-2.4,1.6c-0.9,0-1.7-0.5-2.2-1.2
			c-0.7-1-1-2.1-1-3.3C264.9,175.5,266.2,173.5,268,173.5L268,173.5z M263.3,201.5c-2.1,0-3.8-3.3-3.8-7.4s1.7-7.4,3.8-7.4
			s3.8,3.3,3.8,7.4S265.4,201.5,263.3,201.5L263.3,201.5z M271.1,244.5c-2,0-4-0.2-6-0.6c7.1-20.1,11.1-41.2,12-62.5
			c17.3,3.3,28.5,20,25.2,37.3C299.4,233.6,286.3,244.4,271.1,244.5z"/>
		<ellipse class="st2" cx="143.1" cy="135" rx="126.8" ry="41.6"/>
		<path class="st0" d="M143.1,176.6c-23.5,0-47-1.9-70-6.8c-11.5-2.5-22.8-5.6-33.6-10.5c-5.4-2.3-10.5-5.4-15.1-9.1
			c-2.3-1.9-4.3-4.1-5.9-6.6c-3.5-5.2-3.5-12-0.1-17.2c1.6-2.5,3.6-4.8,5.9-6.7c4.6-3.8,9.6-6.9,15.1-9.3c10.7-5,22.1-8.3,33.6-10.9
			c23-5,46.6-7,70.1-7.1c23.5,0.1,47.1,2.1,70.1,7.1c11.6,2.4,22.8,6,33.6,10.9c5.4,2.4,10.5,5.5,15.1,9.3c2.3,1.9,4.3,4.2,5.9,6.7
			c3.5,5.2,3.4,12-0.1,17.2c-1.7,2.5-3.7,4.7-6,6.6c-4.6,3.7-9.7,6.8-15.1,9.1c-10.7,4.9-22.1,8-33.6,10.5
			C190.1,174.7,166.5,176.6,143.1,176.6z M143.1,176.6c23.4-0.1,47-2.1,69.9-7.1c11.5-2.4,22.7-6,33.4-10.8
			c5.3-2.4,10.3-5.5,14.8-9.2c2.2-1.9,4.1-4,5.7-6.5c3.3-4.9,3.2-11.3-0.1-16.1c-1.6-2.4-3.5-4.6-5.8-6.4c-4.5-3.7-9.5-6.7-14.9-9
			c-10.6-4.8-22-7.9-33.4-10.4c-22.9-4.9-46.4-6.7-69.8-6.7s-46.9,1.9-69.8,6.7c-11.5,2.5-22.8,5.6-33.4,10.4
			c-5.3,2.3-10.3,5.3-14.9,9c-2.2,1.8-4.2,4-5.8,6.4c-3.3,4.8-3.3,11.2-0.1,16.1c1.6,2.4,3.5,4.6,5.7,6.5c4.5,3.7,9.5,6.8,14.8,9.2
			c10.7,4.8,21.9,8.4,33.4,10.8C96.1,174.4,119.6,176.4,143.1,176.6z"/>
		
			<radialGradient id="SVGID_3_" cx="140.7403" cy="319.46" r="80.4971" gradientTransform="matrix(1 0 0 -1 0 456)" gradientUnits="userSpaceOnUse">
			<stop  offset="0" style="stop-color:#9E4D00"/>
			<stop  offset="1" style="stop-color:#462A00"/>
		</radialGradient>
		<ellipse class="st3" cx="140.7" cy="136.5" rx="108.2" ry="35.5"/>
		<path class="st2" d="M184,112c3.2,1.7,6.1,3.9,8.6,6.6c2.5,2.7,4.2,6.1,4.9,9.7c0.6,3.7,0,7.5-1.6,10.9c-1.7,3.3-3.9,6.3-6.7,8.8
			c-2.7,2.5-5.8,4.6-9,6.4c-1.6,0.9-3.2,1.7-4.9,2.5s-3.4,1.4-5.1,2.1c-7,2.3-14.3,3.5-21.7,3.5c-7.3,0.1-14.7-0.7-21.8-2.5
			c-7.2-1.6-14.1-4.4-20.5-8.1c-0.8-0.5-1.6-1-2.4-1.5l-2.3-1.7c-1.6-1.1-3-2.5-4.2-4c-1.3-1.6-2.3-3.4-2.8-5.4
			c-0.6-2-0.6-4.2-0.2-6.3c1-4.1,3.7-7.3,6.7-9.8c3-2.3,6.3-4.2,9.8-5.6c6.9-2.7,14.3-4.1,21.8-4.2c3.7-0.1,7.4,0.2,11.1,0.7
			c3.7,0.5,7.3,1.4,10.8,2.6c3.6,1.2,7,3.1,10,5.5c1.6,1.3,2.9,3.1,3.7,5c0.8,2.1,0.8,4.4-0.1,6.5c-0.8,1.9-2.1,3.6-3.7,4.9
			c-1.5,1.2-3.2,2.2-4.9,3c-3.4,1.6-7.1,2.6-10.8,3c-3.7,0.5-7.4,0.5-11.1,0c-3.8-0.4-7.4-1.5-10.8-3.2c-1.8-0.8-3.4-2-4.7-3.5
			c-0.7-0.8-1.2-1.8-1.5-2.8c-0.3-1.1-0.2-2.2,0.3-3.3c0.9-1.9,2.3-3.4,4.1-4.3c1.6-0.9,3.4-1.7,5.3-2.1c3.6-0.9,7.4-1,11.1-0.4
			c1.8,0.3,3.6,0.8,5.3,1.6c0.9,0.4,1.7,0.9,2.4,1.4c0.8,0.6,1.5,1.3,1.9,2.3c0.4,1,0.3,2.1-0.2,3c-0.5,0.8-1.2,1.5-2.1,2
			c-1.6,0.9-3.4,1.6-5.2,1.8c-1.8,0.2-3.7,0.2-5.4-0.1c-1.8-0.3-3.5-1-5-2.1c1.5,1,3.2,1.6,5,1.8c1.8,0.2,3.6,0.2,5.3-0.1
			c1.7-0.3,3.4-0.9,4.9-1.9c0.7-0.5,1.3-1.1,1.7-1.8c0.4-0.7,0.4-1.5,0.1-2.2c-0.4-0.7-0.9-1.3-1.6-1.8c-0.7-0.5-1.5-0.9-2.3-1.2
			c-1.6-0.6-3.3-1.1-5.1-1.3c-3.5-0.5-7-0.2-10.4,0.8c-1.6,0.5-3.2,1.1-4.7,2c-1.4,0.8-2.5,1.9-3.1,3.4c-0.5,1.4-0.1,2.9,1,3.9
			c1.1,1.2,2.5,2.1,4,2.8c3.2,1.4,6.5,2.3,10,2.6c3.5,0.4,7,0.3,10.4-0.2c3.4-0.5,6.7-1.5,9.9-3c1.5-0.7,2.9-1.6,4.2-2.7
			c1.2-1,2.1-2.2,2.8-3.6c0.5-1.3,0.5-2.7,0-4c-0.6-1.4-1.6-2.6-2.8-3.6c-2.7-2.1-5.7-3.7-8.9-4.8c-6.7-2.2-13.6-3.2-20.6-3
			c-7,0.1-13.9,1.4-20.4,4c-3.2,1.2-6.2,2.9-8.9,5c-2.6,2.1-4.8,4.7-5.4,7.7c-0.3,1.5-0.3,3,0.1,4.4c0.5,1.5,1.2,2.9,2.2,4.1
			c1,1.3,2.2,2.5,3.6,3.4l2.1,1.7c0.7,0.5,1.5,0.9,2.2,1.4c6,3.6,12.6,6.3,19.4,8c6.9,1.8,13.9,2.7,21,2.8
			c7.1,0.1,14.1-0.8,20.9-2.9c1.7-0.5,3.3-1.2,5-1.8s3.2-1.5,4.8-2.3c3.1-1.6,6.1-3.6,8.8-5.9c2.7-2.2,5-4.9,6.7-8
			c1.7-3.1,2.4-6.6,1.9-10.1c-0.5-3.5-2-6.8-4.3-9.5C189.9,116.3,187.1,113.9,184,112z"/>
		<rect x="124.6" y="253.9" class="st4" width="15.7" height="15.7"/>
		<rect x="125" y="276.6" class="st4" width="15.7" height="15.7"/>
		<rect x="154.3" y="253.9" class="st4" width="15.7" height="15.7"/>
		<rect x="154.8" y="276.6" class="st4" width="15.7" height="15.7"/>
		
			<radialGradient id="SVGID_4_" cx="132.4253" cy="194.265" r="7.855" gradientTransform="matrix(1 0 0 -1 0 456)" gradientUnits="userSpaceOnUse">
			<stop  offset="0" style="stop-color:#9E4D00"/>
			<stop  offset="1" style="stop-color:#462A00"/>
		</radialGradient>
		<rect x="124.6" y="253.9" class="st5" width="15.7" height="15.7"/>
		
			<radialGradient id="SVGID_5_" cx="162.1753" cy="194.265" r="7.855" gradientTransform="matrix(1 0 0 -1 0 456)" gradientUnits="userSpaceOnUse">
			<stop  offset="0" style="stop-color:#9E4D00"/>
			<stop  offset="1" style="stop-color:#462A00"/>
		</radialGradient>
		<rect x="154.3" y="253.9" class="st6" width="15.7" height="15.7"/>
		
			<radialGradient id="SVGID_6_" cx="132.8803" cy="171.5" r="7.86" gradientTransform="matrix(1 0 0 -1 0 456)" gradientUnits="userSpaceOnUse">
			<stop  offset="0" style="stop-color:#BD5C00"/>
			<stop  offset="1" style="stop-color:#754600"/>
		</radialGradient>
		<rect x="125" y="276.6" class="st7" width="15.7" height="15.7"/>
		
			<radialGradient id="SVGID_7_" cx="162.6303" cy="171.5" r="7.86" gradientTransform="matrix(1 0 0 -1 0 456)" gradientUnits="userSpaceOnUse">
			<stop  offset="0" style="stop-color:#BD5C00"/>
			<stop  offset="1" style="stop-color:#754600"/>
		</radialGradient>
		<rect x="154.8" y="276.6" class="st8" width="15.7" height="15.7"/>
		
			<radialGradient id="SVGID_8_" cx="145.0883" cy="169.2996" r="77.1441" gradientTransform="matrix(1 0 0 -1 0 456)" gradientUnits="userSpaceOnUse">
			<stop  offset="0" style="stop-color:#BD5C00"/>
			<stop  offset="1" style="stop-color:#754600"/>
		</radialGradient>
		<path class="st9" d="M219.9,283.8v-55.2h-13.3v45l-58.9-45l-93.9,71.8c23.7,27.7,55.1,44.5,89.6,44.5c36.1,0,68.8-18.5,92.9-48.6
			L219.9,283.8z M124.6,253.9h15.7v15.7h-15.7V253.9z M140.8,292.4H125v-15.7h15.7L140.8,292.4z M154.3,253.9H170v15.7h-15.7
			L154.3,253.9z M170.5,292.4h-15.7v-15.7h15.7V292.4z"/>
		<path class="st2" d="M21.8,161.3c0,0,4,75.8,16.7,92.6c0,0-15.2-82.9-12.7-89.9"/>
		<path class="st2" d="M32.6,162.2c0,0,3.4,64.3,14.1,78.5c0,0-12.9-70.3-10.7-76.2"/>
		<path class="st2" d="M267.1,194.1c0,4.1-1.7,7.4-3.8,7.4s-3.8-3.3-3.8-7.4s1.7-7.4,3.8-7.4S267.1,190,267.1,194.1z"/>
		<path class="st2" d="M271.1,178c0,1-0.2,2-0.7,2.8c-0.4,1-1.4,1.6-2.4,1.6c-0.9,0-1.7-0.5-2.2-1.2c-0.7-1-1-2.1-1-3.3
			c0-2.5,1.4-4.4,3.1-4.4S271.1,175.5,271.1,178z"/>
	</g>
</g>
</svg>
